<svg width="13" height="16" viewBox="0 0 13 16" fill="none" xmlns="http://www.w3.org/2000/svg">
<path d="M8.66667 2.90909C9.04976 2.90909 9.41716 3.06234 9.68804 3.33512C9.95893 3.6079 10.1111 3.97787 10.1111 4.36364V16L5.05556 13.8182L0 16V4.36364C0 3.97787 0.152182 3.6079 0.423068 3.33512C0.693954 3.06234 1.06135 2.90909 1.44444 2.90909H8.66667ZM4.33333 0H11.5556C11.9386 0 12.306 0.153246 12.5769 0.426027C12.8478 0.698807 13 1.06878 13 1.45455V13.0909L11.5556 12.4582V1.45455H2.88889C2.88889 1.06878 3.04107 0.698807 3.31196 0.426027C3.58284 0.153246 3.95024 0 4.33333 0Z" fill="#704A1E"/>
</svg>
