<svg width="37" height="41" viewBox="0 0 37 41" fill="none" xmlns="http://www.w3.org/2000/svg">
<path d="M32.8 4.1H24.231C23.37 1.722 21.115 0 18.45 0C15.785 0 13.53 1.722 12.669 4.1H4.1C3.01261 4.1 1.96976 4.53196 1.20086 5.30086C0.431963 6.06976 0 7.11261 0 8.2V36.9C0 37.9874 0.431963 39.0302 1.20086 39.7991C1.96976 40.568 3.01261 41 4.1 41H32.8C33.8874 41 34.9302 40.568 35.6991 39.7991C36.468 39.0302 36.9 37.9874 36.9 36.9V8.2C36.9 7.11261 36.468 6.06976 35.6991 5.30086C34.9302 4.53196 33.8874 4.1 32.8 4.1ZM18.45 4.1C18.9937 4.1 19.5151 4.31598 19.8996 4.70043C20.284 5.08488 20.5 5.60631 20.5 6.15C20.5 6.69369 20.284 7.21512 19.8996 7.59957C19.5151 7.98402 18.9937 8.2 18.45 8.2C17.9063 8.2 17.3849 7.98402 17.0004 7.59957C16.616 7.21512 16.4 6.69369 16.4 6.15C16.4 5.60631 16.616 5.08488 17.0004 4.70043C17.3849 4.31598 17.9063 4.1 18.45 4.1ZM8.2 12.3H28.7V8.2H32.8V36.9H4.1V8.2H8.2V12.3ZM9.225 25.625L12.3 22.55L16.4 26.65L25.625 17.425L28.7 20.5L16.4 32.8L9.225 25.625Z" fill="#C09C70"/>
</svg>
