<svg width="15" height="16" viewBox="0 0 15 16" fill="none" xmlns="http://www.w3.org/2000/svg">
<path d="M12.7372 1.59215H11.9411V0H10.3489V1.59215H3.98036V0H2.38822V1.59215H1.59215C1.16988 1.59215 0.764914 1.75989 0.466329 2.05847C0.167743 2.35706 0 2.76203 0 3.18429V14.3293C0 14.7516 0.167743 15.1565 0.466329 15.4551C0.764914 15.7537 1.16988 15.9215 1.59215 15.9215H5.57251V14.3293H1.59215V5.57251H12.7372V6.36858H14.3293V3.18429C14.3293 2.76203 14.1616 2.35706 13.863 2.05847C13.5644 1.75989 13.1594 1.59215 12.7372 1.59215ZM14.8866 9.8315L14.0905 10.6276L12.4585 9.03543L13.2546 8.23935C13.4138 8.07218 13.6845 8.06422 13.8676 8.23935L14.8866 9.25833C15.0378 9.41754 15.0378 9.67228 14.8866 9.8315ZM7.16465 14.2815L11.9968 9.45734L13.6288 11.0495L8.80456 15.9215H7.16465V14.2815Z" fill="#704A1E"/>
</svg>
