<svg width="15" height="12" viewBox="0 0 15 12" fill="none" xmlns="http://www.w3.org/2000/svg">
<path d="M2.625 3.75C2.92337 3.75 3.20952 3.63147 3.4205 3.4205C3.63147 3.20952 3.75 2.92337 3.75 2.625C3.75 2.32663 3.63147 2.04048 3.4205 1.8295C3.20952 1.61853 2.92337 1.5 2.625 1.5C2.32663 1.5 2.04048 1.61853 1.8295 1.8295C1.61853 2.04048 1.5 2.32663 1.5 2.625C1.5 2.92337 1.61853 3.20952 1.8295 3.4205C2.04048 3.63147 2.32663 3.75 2.625 3.75ZM11.5575 5.685C11.8275 5.955 12 6.33 12 6.75C12 7.1625 11.835 7.5375 11.5575 7.8075L7.8075 11.5575C7.66839 11.6973 7.50302 11.8083 7.3209 11.884C7.13878 11.9597 6.94348 11.9987 6.74625 11.9987C6.54902 11.9987 6.35372 11.9597 6.1716 11.884C5.98948 11.8083 5.82411 11.6973 5.685 11.5575L0.4425 6.315C0.165 6.0375 0 5.6625 0 5.25V1.5C0 0.6675 0.6675 0 1.5 0H5.25C5.6625 0 6.0375 0.165 6.3075 0.435L11.5575 5.685ZM8.655 1.2825L9.405 0.5325L14.5575 5.685C14.835 5.955 15 6.3375 15 6.75C15 7.1625 14.835 7.5375 14.565 7.8075L10.53 11.8425L9.78 11.0925L14.0625 6.75L8.655 1.2825Z" fill="#704A1E"/>
</svg>
