<svg width="212" height="69" viewBox="0 0 212 69" fill="none" xmlns="http://www.w3.org/2000/svg">
<path d="M74.3068 4.52055H82.1008V5.41041C81.7121 5.57406 81.3235 5.71726 80.9348 5.84C80.5461 5.96274 80.1574 6.07525 79.7688 6.17753V18.7277C79.7688 19.8119 79.8813 20.7222 80.1063 21.4586C80.3518 22.1746 80.6995 22.7576 81.1496 23.2077C81.5996 23.6373 82.152 23.9543 82.8066 24.1589C83.4816 24.343 84.2385 24.4351 85.0773 24.4351C86.6933 24.4351 87.9514 23.9953 88.8515 23.1156C89.7516 22.2155 90.2016 20.7426 90.2016 18.697V6.4537C89.7311 6.29005 89.2913 6.12639 88.8822 5.96274C88.4731 5.77863 88.1048 5.59452 87.7775 5.41041V4.52055H94.3134V5.41041C93.9247 5.63543 93.5258 5.84 93.1167 6.02411C92.728 6.20822 92.3291 6.35142 91.92 6.4537V18.7584C91.92 20.0676 91.7461 21.1927 91.3984 22.1337C91.0506 23.0747 90.5596 23.8521 89.9255 24.4658C89.3118 25.0795 88.5549 25.5397 87.6548 25.8466C86.7752 26.133 85.7932 26.2762 84.709 26.2762C82.152 26.2762 80.1984 25.7034 78.8482 24.5578C77.4981 23.3918 76.823 21.6121 76.823 19.2186V6.17753C75.9843 6.05479 75.1456 5.79909 74.3068 5.41041V4.52055ZM112.322 26H105.724V25.2329C106.277 24.9465 106.88 24.701 107.535 24.4964V17.2241C107.535 15.6694 107.31 14.442 106.86 13.5419C106.41 12.6418 105.591 12.1918 104.405 12.1918C103.894 12.1918 103.413 12.2838 102.963 12.4679C102.533 12.6521 102.144 12.9078 101.797 13.2351C101.469 13.5419 101.183 13.8999 100.938 14.309C100.692 14.6977 100.498 15.1068 100.355 15.5364V24.4964C100.989 24.6192 101.602 24.8647 102.196 25.2329V26H95.5677V25.2329C96.0791 24.9669 96.7542 24.7215 97.5929 24.4964V12.4373L95.5677 12.1918V11.394C96.0995 11.1689 96.7132 10.9644 97.4088 10.7803C98.1043 10.5962 98.8305 10.4325 99.5874 10.2893H100.355V13.726H100.385C100.815 12.785 101.428 11.977 102.226 11.3019C103.045 10.6268 104.026 10.2893 105.172 10.2893C105.99 10.2893 106.717 10.3916 107.351 10.5962C108.005 10.7803 108.547 11.1178 108.977 11.6088C109.407 12.0997 109.734 12.7646 109.959 13.6033C110.184 14.4216 110.296 15.4648 110.296 16.7332V24.4964C111.115 24.6396 111.79 24.8851 112.322 25.2329V26ZM113.725 26V25.1101C114.544 24.7215 115.382 24.476 116.242 24.3737V6.17753C115.833 6.09571 115.413 5.99342 114.984 5.87068C114.554 5.72749 114.135 5.57406 113.725 5.41041V4.52055H116.978C117.367 4.52055 117.735 4.51032 118.083 4.48986C118.451 4.46941 118.829 4.44895 119.218 4.42849C119.607 4.40804 120.026 4.38758 120.476 4.36712C120.926 4.34667 121.438 4.33644 122.01 4.33644C122.829 4.33644 123.657 4.40804 124.496 4.55123C125.355 4.67397 126.122 4.91945 126.797 5.28767C127.493 5.65589 128.055 6.17753 128.485 6.8526C128.915 7.50721 129.129 8.36639 129.129 9.43014C129.129 9.96201 129.047 10.4939 128.884 11.0258C128.72 11.5576 128.464 12.0588 128.117 12.5293C127.789 12.9794 127.37 13.3783 126.859 13.726C126.347 14.0738 125.744 14.3295 125.048 14.4932V14.6159C125.662 14.7182 126.265 14.8921 126.859 15.1375C127.472 15.383 128.014 15.7205 128.485 16.1501C128.955 16.5593 129.334 17.0707 129.62 17.6844C129.927 18.2981 130.081 19.0345 130.081 19.8937C130.081 20.9984 129.835 21.9496 129.344 22.7474C128.853 23.5452 128.209 24.1998 127.411 24.7112C126.634 25.2226 125.744 25.6011 124.741 25.8466C123.739 26.0716 122.726 26.1841 121.704 26.1841C120.988 26.1841 120.18 26.1534 119.279 26.0921C118.379 26.0307 117.51 26 116.671 26H113.725ZM121.918 24.5885C122.655 24.5885 123.34 24.476 123.974 24.251C124.629 24.0259 125.181 23.7191 125.631 23.3304C126.102 22.9213 126.47 22.4405 126.736 21.8882C127.002 21.3154 127.135 20.7017 127.135 20.0471C127.135 19.2289 126.971 18.5538 126.644 18.0219C126.337 17.4696 125.907 17.04 125.355 16.7332C124.823 16.4058 124.199 16.1808 123.483 16.0581C122.788 15.9353 122.062 15.874 121.305 15.874H119.003V24.343C119.29 24.4248 119.627 24.4862 120.016 24.5271C120.425 24.568 121.059 24.5885 121.918 24.5885ZM120.538 14.2784C120.885 14.2784 121.294 14.2681 121.765 14.2477C122.256 14.2068 122.655 14.1658 122.962 14.1249C123.903 13.7976 124.67 13.276 125.263 12.56C125.877 11.8236 126.184 10.9644 126.184 9.98247C126.184 8.63233 125.774 7.61973 124.956 6.94466C124.158 6.26959 123.084 5.93205 121.734 5.93205C121.1 5.93205 120.558 5.94228 120.108 5.96274C119.658 5.9832 119.29 6.01388 119.003 6.05479V14.2784H120.538ZM132.972 18.3288C132.972 17.04 133.136 15.9047 133.463 14.9227C133.811 13.9204 134.302 13.0816 134.936 12.4066C135.57 11.711 136.327 11.1894 137.207 10.8416C138.107 10.4734 139.099 10.2893 140.183 10.2893C141.451 10.2893 142.546 10.4837 143.466 10.8723C144.387 11.261 145.134 11.8133 145.706 12.5293C146.3 13.2248 146.729 14.0636 146.995 15.0455C147.282 16.0274 147.425 17.1218 147.425 18.3288C147.425 20.9063 146.77 22.8906 145.461 24.2816C144.152 25.6727 142.392 26.3682 140.183 26.3682C138.956 26.3682 137.892 26.1841 136.992 25.8159C136.092 25.4272 135.345 24.8851 134.752 24.1896C134.159 23.4736 133.709 22.6247 133.402 21.6427C133.115 20.6404 132.972 19.5357 132.972 18.3288ZM135.918 18.3288C135.918 19.2493 136 20.1187 136.163 20.937C136.347 21.7553 136.624 22.4712 136.992 23.0849C137.381 23.6782 137.882 24.1487 138.495 24.4964C139.109 24.8442 139.846 25.0181 140.705 25.0181C141.809 25.0181 142.709 24.476 143.405 23.3918C144.121 22.3076 144.479 20.6199 144.479 18.3288C144.479 17.3878 144.387 16.5184 144.203 15.7205C144.039 14.9023 143.773 14.1965 143.405 13.6033C143.037 12.9896 142.566 12.5089 141.993 12.1611C141.421 11.8133 140.735 11.6395 139.938 11.6395C138.731 11.6395 137.759 12.1816 137.023 13.2658C136.286 14.35 135.918 16.0376 135.918 18.3288ZM165.49 26H158.923V25.2329C159.128 25.1101 159.373 24.9874 159.66 24.8647C159.967 24.7215 160.325 24.5987 160.734 24.4964V17.4082C160.734 16.59 160.693 15.8535 160.611 15.1989C160.55 14.5443 160.417 14.0022 160.212 13.5726C160.028 13.1226 159.752 12.785 159.384 12.56C159.015 12.3145 158.535 12.1918 157.942 12.1918C157.491 12.1918 157.072 12.2838 156.683 12.4679C156.315 12.6521 155.978 12.8975 155.671 13.2044C155.384 13.5112 155.129 13.859 154.904 14.2477C154.699 14.6363 154.535 15.0455 154.413 15.4751V24.4964C154.74 24.5987 155.047 24.7112 155.333 24.834C155.64 24.9363 155.937 25.0692 156.223 25.2329V26H149.626V25.2329C149.912 25.0897 150.229 24.9567 150.577 24.834C150.925 24.7112 151.283 24.5987 151.651 24.4964V12.4373L149.626 12.1918V11.394C150.28 11.1076 150.945 10.8826 151.62 10.7189C152.316 10.5348 152.991 10.3916 153.646 10.2893H154.413V13.7567H154.443C154.771 12.7953 155.323 11.977 156.1 11.3019C156.898 10.6268 157.88 10.2893 159.046 10.2893C159.537 10.2893 160.008 10.3405 160.458 10.4427C160.908 10.545 161.327 10.7394 161.716 11.0258C162.104 11.2917 162.432 11.6701 162.698 12.1611C162.964 12.6521 163.158 13.2862 163.281 14.0636C163.649 12.9384 164.242 12.0281 165.06 11.3326C165.879 10.6371 166.902 10.2893 168.129 10.2893C168.886 10.2893 169.54 10.3916 170.093 10.5962C170.666 10.7803 171.136 11.1178 171.504 11.6088C171.872 12.0997 172.138 12.7646 172.302 13.6033C172.486 14.442 172.578 15.5058 172.578 16.7945V24.4964C173.274 24.6192 173.949 24.8647 174.603 25.2329V26H168.006V25.2329C168.62 24.9056 169.223 24.6601 169.817 24.4964V16.8559C169.817 16.1195 169.776 15.4648 169.694 14.8921C169.632 14.3193 169.499 13.8385 169.295 13.4499C169.09 13.0407 168.804 12.7339 168.436 12.5293C168.068 12.3043 167.577 12.1918 166.963 12.1918C165.981 12.1918 165.214 12.5293 164.662 13.2044C164.13 13.8795 163.741 14.7386 163.495 15.7819V24.4964C164.211 24.701 164.876 24.9465 165.49 25.2329V26Z" fill="#71512B"/>
<path d="M82.1666 61.909C82.8767 61.9879 83.5474 62.1195 84.1786 62.3036C84.8099 62.4614 85.4016 62.6455 85.954 62.8559V64H75.1441V62.8559C75.6701 62.5929 76.2093 62.3956 76.7616 62.2641C77.314 62.1326 77.8532 62.0142 78.3792 61.909V38.514C77.7742 38.4088 77.2088 38.2773 76.6827 38.1195C76.1567 37.9353 75.6438 37.7381 75.1441 37.5277V36.3836H78.6948C79.7468 36.3836 80.891 36.331 82.1271 36.2258C83.3633 36.1205 84.5468 36.0679 85.6778 36.0679C86.9666 36.0679 88.229 36.2126 89.4652 36.5019C90.7014 36.7649 91.7929 37.2252 92.7397 37.8827C93.7129 38.5403 94.4888 39.4214 95.0674 40.526C95.6723 41.6044 95.9748 42.9589 95.9748 44.5896C95.9748 46.1414 95.6723 47.4696 95.0674 48.5742C94.4625 49.6789 93.6471 50.5863 92.6214 51.2964C91.6219 52.0066 90.4778 52.5326 89.189 52.8745C87.9003 53.1901 86.5721 53.3479 85.2044 53.3479C85.0729 53.3479 84.8625 53.3479 84.5732 53.3479C84.3101 53.3479 84.0208 53.3479 83.7052 53.3479C83.3896 53.3216 83.0871 53.2953 82.7978 53.269C82.5085 53.2427 82.2981 53.2164 82.1666 53.1901V61.909ZM84.8493 38.1195C84.2181 38.1195 83.7052 38.1326 83.3107 38.1589C82.9162 38.1852 82.5348 38.2378 82.1666 38.3167V51.0992C82.2981 51.1518 82.4822 51.1912 82.7189 51.2175C82.9819 51.2175 83.2449 51.2307 83.5079 51.257C83.7973 51.2833 84.0734 51.2964 84.3364 51.2964C84.5995 51.2964 84.8099 51.2964 84.9677 51.2964C85.8882 51.2964 86.7562 51.1781 87.5715 50.9414C88.3868 50.6784 89.097 50.2707 89.7019 49.7184C90.3332 49.166 90.8329 48.469 91.2011 47.6274C91.5693 46.7858 91.7534 45.7732 91.7534 44.5896C91.7534 42.4329 91.1353 40.8153 89.8992 39.737C88.6893 38.6586 87.006 38.1195 84.8493 38.1195ZM107.878 64H99.1192V63.0137C99.9872 62.5929 100.855 62.2773 101.723 62.0668V37.0937L98.7247 36.7781V35.7523C99.4086 35.4367 100.263 35.1605 101.289 34.9238C102.315 34.6871 103.314 34.4899 104.287 34.3321H105.274V62.0668C106.142 62.2773 107.01 62.5929 107.878 63.0137V64ZM125.543 58.8318C125.543 59.4104 125.557 59.9101 125.583 60.331C125.609 60.7518 125.636 61.1989 125.662 61.6723L128.384 62.0668V62.8953C127.727 63.2373 126.99 63.5397 126.175 63.8027C125.386 64.0658 124.623 64.263 123.887 64.3945H122.9C122.637 63.7896 122.479 63.1321 122.427 62.4219C122.374 61.6855 122.335 60.8833 122.308 60.0153H122.111C122.006 60.5414 121.796 61.0805 121.48 61.6329C121.191 62.1589 120.796 62.6323 120.296 63.0532C119.823 63.474 119.257 63.8159 118.6 64.0789C117.942 64.3419 117.193 64.4734 116.351 64.4734C114.747 64.4734 113.432 63.9868 112.406 63.0137C111.407 62.0405 110.907 60.7649 110.907 59.1868C110.907 57.977 111.143 56.9907 111.617 56.2279C112.117 55.4389 112.84 54.8208 113.787 54.3737C114.734 53.9266 115.904 53.611 117.298 53.4268C118.692 53.2164 120.31 53.0586 122.151 52.9534C122.256 51.8225 122.282 50.8099 122.23 49.9156C122.203 48.9951 122.059 48.2192 121.796 47.5879C121.559 46.9304 121.191 46.4307 120.691 46.0888C120.217 45.7205 119.586 45.5364 118.797 45.5364C118.429 45.5364 118.008 45.5627 117.535 45.6153C117.088 45.6416 116.64 45.7468 116.193 45.931L114.339 50.6652H113.313C113.05 49.8762 112.814 49.0608 112.603 48.2192C112.419 47.3775 112.301 46.549 112.248 45.7337C113.248 45.1288 114.352 44.6553 115.562 44.3134C116.798 43.9715 118.166 43.8005 119.665 43.8005C121.007 43.8005 122.072 43.9978 122.861 44.3923C123.676 44.7605 124.294 45.2471 124.715 45.8521C125.136 46.457 125.412 47.1277 125.543 47.8641C125.675 48.6005 125.741 49.337 125.741 50.0734C125.741 51.6515 125.701 53.177 125.622 54.6499C125.57 56.0964 125.543 57.4904 125.543 58.8318ZM117.929 62.0274C118.587 62.0274 119.165 61.8959 119.665 61.6329C120.165 61.3699 120.586 61.0542 120.928 60.686C121.27 60.3178 121.546 59.9496 121.756 59.5814C121.967 59.1868 122.111 58.8581 122.19 58.5951V54.4526C120.665 54.4526 119.415 54.5315 118.442 54.6893C117.469 54.8471 116.706 55.097 116.154 55.4389C115.602 55.7808 115.22 56.2148 115.01 56.7408C114.799 57.2405 114.694 57.8192 114.694 58.4767C114.694 59.6077 114.983 60.4888 115.562 61.12C116.141 61.7249 116.93 62.0274 117.929 62.0274ZM152.051 64H143.568V63.0137C144.279 62.6455 145.054 62.3299 145.896 62.0668V52.7167C145.896 50.7178 145.607 49.1397 145.028 47.9825C144.45 46.8252 143.397 46.2466 141.872 46.2466C141.214 46.2466 140.596 46.3649 140.018 46.6016C139.465 46.8384 138.966 47.1671 138.519 47.5879C138.098 47.9825 137.73 48.4427 137.414 48.9688C137.098 49.4685 136.848 49.9945 136.664 50.5468V62.0668C137.48 62.2247 138.269 62.5403 139.031 63.0137V64H130.51V63.0137C131.167 62.6718 132.035 62.3562 133.114 62.0668V46.5622L130.51 46.2466V45.2208C131.194 44.9315 131.983 44.6685 132.877 44.4318C133.771 44.1951 134.705 43.9847 135.678 43.8005H136.664V48.2192H136.704C137.256 47.0093 138.045 45.9704 139.071 45.1025C140.123 44.2345 141.385 43.8005 142.858 43.8005C143.91 43.8005 144.844 43.9321 145.659 44.1951C146.501 44.4318 147.198 44.8658 147.75 45.497C148.303 46.1282 148.724 46.983 149.013 48.0614C149.302 49.1134 149.447 50.4548 149.447 52.0855V62.0668C150.499 62.251 151.367 62.5666 152.051 63.0137V64ZM175.475 64H166.993V63.0137C167.703 62.6455 168.479 62.3299 169.321 62.0668V52.7167C169.321 50.7178 169.031 49.1397 168.453 47.9825C167.874 46.8252 166.822 46.2466 165.297 46.2466C164.639 46.2466 164.021 46.3649 163.442 46.6016C162.89 46.8384 162.39 47.1671 161.943 47.5879C161.522 47.9825 161.154 48.4427 160.839 48.9688C160.523 49.4685 160.273 49.9945 160.089 50.5468V62.0668C160.904 62.2247 161.693 62.5403 162.456 63.0137V64H153.934V63.0137C154.592 62.6718 155.46 62.3562 156.538 62.0668V46.5622L153.934 46.2466V45.2208C154.618 44.9315 155.407 44.6685 156.302 44.4318C157.196 44.1951 158.13 43.9847 159.103 43.8005H160.089V48.2192H160.128C160.681 47.0093 161.47 45.9704 162.496 45.1025C163.548 44.2345 164.81 43.8005 166.283 43.8005C167.335 43.8005 168.269 43.9321 169.084 44.1951C169.926 44.4318 170.623 44.8658 171.175 45.497C171.727 46.1282 172.148 46.983 172.437 48.0614C172.727 49.1134 172.871 50.4548 172.871 52.0855V62.0668C173.924 62.251 174.791 62.5666 175.475 63.0137V64ZM193.732 61.2384C193.521 61.6855 193.193 62.1063 192.745 62.5008C192.298 62.8953 191.785 63.2373 191.207 63.5266C190.628 63.8159 189.997 64.0395 189.313 64.1973C188.629 64.3814 187.932 64.4734 187.222 64.4734C185.67 64.4734 184.303 64.2367 183.119 63.7633C181.936 63.2636 180.949 62.5666 180.16 61.6723C179.371 60.7518 178.766 59.6603 178.345 58.3978C177.951 57.1353 177.754 55.7151 177.754 54.137C177.754 50.7704 178.53 48.206 180.081 46.4438C181.633 44.6816 183.829 43.8005 186.67 43.8005C187.59 43.8005 188.498 43.9321 189.392 44.1951C190.286 44.4318 191.075 44.8395 191.759 45.4181C192.469 45.9967 193.035 46.7726 193.456 47.7458C193.903 48.6926 194.126 49.8762 194.126 51.2964C194.126 51.7436 194.1 52.2038 194.047 52.6773C194.021 53.1244 193.955 53.611 193.85 54.137H181.541C181.541 55.2416 181.673 56.2805 181.936 57.2537C182.225 58.2005 182.646 59.029 183.198 59.7392C183.75 60.4493 184.447 61.0148 185.289 61.4356C186.131 61.8301 187.117 62.0274 188.248 62.0274C189.168 62.0274 190.102 61.8959 191.049 61.6329C191.996 61.3699 192.706 61.0279 193.179 60.6071L193.732 61.2384ZM186.512 45.5364C185.013 45.5364 183.869 46.0493 183.08 47.0751C182.291 48.0745 181.817 49.8499 181.659 52.4011H190.339C190.365 52.1644 190.378 51.9408 190.378 51.7304C190.405 51.4937 190.418 51.2701 190.418 51.0597C190.418 49.3764 190.102 48.0351 189.471 47.0356C188.84 46.0362 187.853 45.5364 186.512 45.5364ZM205.604 47.2329C205.315 47.3907 204.946 47.7195 204.499 48.2192C204.079 48.6926 203.697 49.4027 203.355 50.3496V62.0668C203.881 62.1195 204.407 62.2247 204.933 62.3825C205.459 62.514 205.985 62.7244 206.511 63.0137V64H197.201V63.0137C197.674 62.7507 198.121 62.5534 198.542 62.4219C198.963 62.2904 199.384 62.1721 199.805 62.0668V46.5622L197.201 46.2466V45.2208C198.042 44.8526 198.91 44.5633 199.805 44.3529C200.699 44.1162 201.554 43.9321 202.369 43.8005H203.355V47.9825H203.513C203.75 47.4564 204.079 46.9304 204.499 46.4044C204.946 45.8784 205.446 45.4049 205.999 44.9841C206.577 44.5633 207.195 44.2477 207.853 44.0373C208.537 43.8005 209.234 43.7216 209.944 43.8005C210.128 44.1425 210.286 44.5238 210.417 44.9447C210.575 45.3392 210.72 45.76 210.851 46.2071V47.2329H205.604Z" fill="#593D1C"/>
<rect x="2" y="28" width="64" height="36" stroke="#543816" stroke-width="2.19178"/>
<path d="M38 4H66V64H38V4Z" stroke="#71512B" stroke-width="2.19178"/>
<path d="M30 4H66V64H30V4Z" stroke="#543816" stroke-width="2.19178"/>
<path d="M30 4H66V64H30V4Z" stroke="#71512B" stroke-width="2.19178"/>
<path d="M2 43L11.437 46.4757C26.3592 51.9716 42.7676 51.8735 57.6231 46.1995L66 43" stroke="#543816" stroke-width="2.19178"/>
</svg>
