<svg width="31" height="41" viewBox="0 0 31 41" fill="none" xmlns="http://www.w3.org/2000/svg">
<path d="M4.42857 0H26.5714C27.746 0 28.8724 0.431963 29.7029 1.20086C30.5334 1.96976 31 3.01261 31 4.1V36.9C31 37.9874 30.5334 39.0302 29.7029 39.7991C28.8724 40.568 27.746 41 26.5714 41H4.42857C3.25404 41 2.12762 40.568 1.2971 39.7991C0.46658 39.0302 0 37.9874 0 36.9V4.1C0 3.01261 0.46658 1.96976 1.2971 1.20086C2.12762 0.431963 3.25404 0 4.42857 0ZM4.42857 4.1V12.3H26.5714V4.1H4.42857ZM4.42857 16.4V20.5H8.85714V16.4H4.42857ZM13.2857 16.4V20.5H17.7143V16.4H13.2857ZM22.1429 16.4V20.5H26.5714V16.4H22.1429ZM4.42857 24.6V28.7H8.85714V24.6H4.42857ZM13.2857 24.6V28.7H17.7143V24.6H13.2857ZM22.1429 24.6V28.7H26.5714V24.6H22.1429ZM4.42857 32.8V36.9H8.85714V32.8H4.42857ZM13.2857 32.8V36.9H17.7143V32.8H13.2857ZM22.1429 32.8V36.9H26.5714V32.8H22.1429Z" fill="#C09C70"/>
</svg>
